<svg xmlns="http://www.w3.org/2000/svg" version="1.1" xmlns:xlink="http://www.w3.org/1999/xlink" xmlns:svgjs="http://svgjs.dev/svgjs" width="1500" height="1500" viewBox="0 0 1500 1500"><rect width="1500" height="1500" fill="#050816"></rect><g transform="matrix(0.6666666666666666,0,0,0.6666666666666666,250.00007343750008,187.66666666666674)"><svg viewBox="0 0 320 360" data-background-color="#050816" preserveAspectRatio="xMidYMid meet" height="1687" width="1500" xmlns="http://www.w3.org/2000/svg" xmlns:xlink="http://www.w3.org/1999/xlink"><g id="tight-bounds" transform="matrix(1,0,0,1,0.000023499999997511622,0)"><svg viewBox="0 0 320 360" height="360" width="320"><g><svg></svg></g><g><svg viewBox="0 0 320 360" height="360" width="320"><g><path transform="translate(-74.99272,-51.79039) scale(4.65793,4.65793)" d="M20.6 59.9l0.8 1-0.4-1.3c-0.1-0.6-0.8 0.1-0.4 0.3M21.5 59.3c0.3 0.5 0.6 1 0.6 1.5 0 0.7 0.6 1 1.1 1.2-0.7-0.8-1.1-3-1.7-2.7M59.9 16.9c1.7 0 3.3-0.2 5.1 0.2 4.4 1.1 8.1 3.3 10.6 6.4l7 11.2c0.3 2.8 0.9 5.9 0.8 9.3 0.7 0 0.6-1 1.4-1.2-0.8 2-1.2 4.5-1.4 7.4-0.5-1.6 0-4 0.1-5.3-0.7 1.1-1.1 0.3-1.1-0.2 0.1-0.8-0.3-0.7-0.6-1-1.1-1-1.8-2.1-2.6-3.8 0.5-1.3 0.6-3.2-1-4.2-0.5-0.3-1.1-0.8-1.4-1.6-0.4-1.1-1.1-2.4-0.9-4.1 0.1-0.5-1.5 1.1-2.4 0.4-3.9-2.7-7.8-5.8-12.5-8.4-2.5 0-4.3-0.9-5.2-2-0.8-1-0.2-2.3 1-2.4 0.7 0 1.5-0.2 2.1 0.2 0.1-0.4 0.5-0.9 1-0.9M50 14.6l0.2 0.1c1 0.2 1.5 1.6 2.6 1.1 0 0.7 0.1 1.4-0.1 1.9-0.3 0.8-1.2 0.8-1.9 0.8-6.7-0.4-10.6 2.4-14.7 4.8-1.1 0.7-2.3 1.2-3.2 2.1-4.3 4-9 7.7-10.1 15.1l-0.9 8.2c-0.1 0.9-1.1 1.8-0.9 2.9l0.7 4.9c-0.7-0.7-1.1 0.2-0.9 0.6 0.1 0.3 0.5 1.3 1.1 0.4 0.8 1.5 1.6 4.4 2.7 5.7 3.4 4 7.8 7.6 11.4 11.2 0.9-0.2 1.6-0.2 1.8-0.8 0.3 0.6-0.3 1.2-0.8 1.3 1.6 1 3.4 1.9 5.8 2.1 3.1 0.2 6 0.7 8.7 1.4 1.4-0.4 2.8-0.6 4.3-0.7 0.5 0 0.8-0.8 1.4-1l0.1-1c0.6 0.9 0.5-0.3 0.1-0.9 0.7 0.6 0.9 1.1 1.2 1.5 0-0.3 0.8-1.4 0.8-0.1l0.2-1.3c0.3-0.2 0.4 1.1 0.7 0.2 0.3-0.9 0.9-0.2 1.5-0.5-0.2 0.4-0.1 1.2 0.6 0.7l0.8-0.7c0.5 1.2 1.3 0.7 1.7 0.5 4.4-2.8 8.8-6.1 13-9.4l-0.1 1.3 0.5-1.6c0.5 0.5 0.9 0.1 1.1-0.2 0.6-1 1.4-2 2.7-2.9-1.6 4.3-3.5 7.7-5.9 10.5l-1 1.2c0 0.7-0.2 1.6-1 1.7-0.4 0.1-1.2-0.2-1.8 0.4-0.3 0.4 0.7 1.2-0.1 0.6-0.7-0.5-1.4 0-2.2 0.2-0.6 0.2 0.4 0.8 0.6 1.2 0.2 0.4 0.4 0.8 0.3 1.3l-1.1-1.2c-1.3 0.7-2.1 2-3.2 3-0.5 0.4-0.3 1.1-0.3 1.7-0.7 0-1.5-0.2-1.9 0.2-0.3 0.4-0.2 1-0.2 1.6-1-0.1-1.1-1.6-2-1.3-0.9 0.2-1.9 0.3-2.7 0.8 0.6 1.2-1 0.5-0.8 0.7-1.5-0.9-2.8-1.6-4.4-1-3.4-1.1-7.6-0.6-10.7-0.2 0-0.5 0.1-1-0.1-1.1-0.2 0.5-0.8 0.3-0.7 0.3-1.9-1.3-3.8-2.1-5.8-3.2-1.8 0.2-3.5-0.7-4-1.2-1.4-1.3-3-0.6-4.3-0.9-2.8-0.7-3.8-3.6-4.1-5.6-0.2-1-1-1.4-1.3-1.3-1.3-4.2-3.3-8-4.9-11.9-0.4-1-0.3-2-0.3-3.1 0.5 0.2 1 0.1 0.9-0.6-0.5-3.3-1.7-5.8-3-8.2 0.7-3.4 0.8-7.4 2.4-10.4 1.4-2.7 4-4.1 5.8-6.4 0.6-0.8 0.6-1.9 1.2-2.6 2-2 4-4.1 6.2-5.9 1-0.8 2.2 0 3.7-0.3 0.5-1.8 2.5-3.4 4.4-2.9 0.8 0.2 2.4-1.9 2.9-2.1 0.8-0.3 0.4 0.8 0.4 1.5 1.9-1.5 4.5-2.3 6.9-3.2" fill="#ffffff" fill-rule="nonzero" stroke="none" stroke-width="1" stroke-linecap="butt" stroke-linejoin="miter" stroke-miterlimit="10" stroke-dasharray="" stroke-dashoffset="0" font-family="none" font-weight="none" font-size="none" text-anchor="none" style="mix-blend-mode: normal" data-fill-palette-color="tertiary"></path></g><g transform="matrix(1,0,0,1,138.4966861847421,90)"><svg viewBox="0 0 43.006627630515844 180" height="180" width="43.006627630515844"><g><svg viewBox="0 0 43.006627630515844 180" height="180" width="43.006627630515844"><g><svg viewBox="0 0 57.81976744186047 241.99893627906977" height="180" width="43.006627630515844"><g transform="matrix(1,0,0,1,0,61.998936279069774)"><svg viewBox="0 0 57.81976744186047 180" height="180" width="57.81976744186047"><g id="textblocktransform"><svg viewBox="0 0 57.81976744186047 180" height="180" width="57.81976744186047" id="textblock"><g><svg viewBox="0 0 57.81976744186047 180" height="180" width="57.81976744186047"><g transform="matrix(1,0,0,1,0,0)"><svg width="57.81976744186047" viewBox="4.2 -34.4 11.05 34.4" height="180" data-palette-color="#ffffff"><path d="M15.25 0L4.2 0 4.2-34.4 15.25-34.4 15.25 0Z" opacity="1" transform="matrix(1,0,0,1,0,0)" fill="#ffffff" class="wordmark-text-0" data-fill-palette-color="primary" id="text-0"></path></svg></g></svg></g></svg></g></svg></g><g transform="matrix(1,0,0,1,11.043575581395348,0)"><svg viewBox="0 0 35.732616279069774 35.732616279069774" height="35.732616279069774" width="35.732616279069774"><g><svg xmlns="http://www.w3.org/2000/svg" xmlns:xlink="http://www.w3.org/1999/xlink" version="1.1" x="0" y="0" viewBox="2 2 124 124" style="enable-background:new 0 0 128 128;" xml:space="preserve" height="35.732616279069774" width="35.732616279069774" class="icon-icon-0" data-fill-palette-color="accent" id="icon-0"><g fill="#ffffff" data-fill-palette-color="accent"><g fill="#ffffff" data-fill-palette-color="accent"><path d="M65.014 78.565l0.849 10.498c3.471-1.635 11.055-6.452 17.148-19.024-3.283 1.844-6.663 3.453-9.687 4.89C70.588 76.245 67.81 77.448 65.014 78.565z" fill="#ffffff" data-fill-palette-color="accent"></path><path d="M99.841 44.021c1.621-6.622 1.766-13.259 1.509-18.156-4.926-0.288-11.619-0.172-18.307 1.467L99.841 44.021z" fill="#ffffff" data-fill-palette-color="accent"></path><path d="M77.854 44.707c-1.165 0-2.33 0.441-3.217 1.322-0.857 0.851-1.328 1.981-1.328 3.183s0.471 2.332 1.327 3.182c1.775 1.763 4.66 1.763 6.434 0 0.856-0.851 1.328-1.981 1.328-3.183s-0.472-2.332-1.328-3.183C80.184 45.147 79.019 44.707 77.854 44.707z" fill="#ffffff" data-fill-palette-color="accent"></path><path d="M56.928 44.262c-12.579 6.037-17.41 13.531-19.06 16.979l10.483 0.836c1.131-2.802 2.352-5.586 3.691-8.328C53.478 50.793 55.09 47.49 56.928 44.262z" fill="#ffffff" data-fill-palette-color="accent"></path><path d="M64 2C29.813 2 2 29.813 2 64s27.813 62 62 62 62-27.813 62-62S98.187 2 64 2zM23.919 90.115L35.64 76.923c0.549-0.619 1.498-0.677 2.117-0.125 0.619 0.55 0.676 1.498 0.125 2.117L26.161 92.107c-0.296 0.334-0.708 0.504-1.122 0.504-0.354 0-0.71-0.125-0.995-0.379C23.425 91.682 23.368 90.734 23.919 90.115zM25.835 104.464c-0.375 0-0.751-0.14-1.042-0.421-0.596-0.576-0.612-1.525-0.037-2.121L42.84 83.199c0.576-0.595 1.525-0.612 2.121-0.037 0.596 0.576 0.612 1.525 0.037 2.121l-18.084 18.723C26.619 104.311 26.228 104.464 25.835 104.464zM51.402 91.559L39.682 104.75c-0.296 0.334-0.708 0.504-1.122 0.504-0.354 0-0.71-0.125-0.995-0.378-0.619-0.55-0.676-1.499-0.125-2.118L49.16 89.566c0.549-0.619 1.498-0.676 2.117-0.125S51.953 90.939 51.402 91.559zM92.607 63.264c-1.523 1.445-3.257 2.778-5.098 4.018-0.007 0.02-0.006 0.041-0.014 0.061C79.171 87.743 66.401 92.2 64.973 92.641c-0.145 0.045-0.294 0.067-0.442 0.067-0.297 0-0.59-0.088-0.841-0.258-0.377-0.255-0.617-0.667-0.654-1.121l-0.941-11.646c-2.543 0.944-5.097 1.826-7.656 2.592-0.142 0.042-0.286 0.063-0.43 0.063-0.391 0-0.772-0.153-1.058-0.436l-7.93-7.879c-0.394-0.391-0.539-0.968-0.378-1.499 0.763-2.516 1.641-5.026 2.579-7.526l-11.63-0.927c-0.455-0.036-0.868-0.277-1.124-0.655-0.255-0.378-0.324-0.852-0.188-1.287 0.443-1.42 4.924-14.105 25.45-22.377 1.25-1.843 2.584-3.597 4.039-5.145 0.002-0.002 0.003-0.004 0.005-0.005 11.267-11.865 29.338-12.384 39.107-11.638 0.742 0.057 1.33 0.649 1.382 1.391 0.405 5.801 0.356 14.521-2.21 22.973-0.021 0.073-0.037 0.144-0.068 0.214C100.224 53.243 97.312 58.811 92.607 63.264z" fill="#ffffff" data-fill-palette-color="accent"></path><path d="M79.737 28.277c-5.021 1.648-9.873 4.268-13.785 8.387-4.706 5.008-8.314 12.433-11.213 18.399-2.785 5.708-5.125 11.58-6.96 17.47l6.651 6.609c5.933-1.824 11.849-4.15 17.598-6.92 6.372-3.027 13.586-6.455 18.515-11.135 4.102-3.883 6.712-8.738 8.357-13.771L79.737 28.277zM83.186 54.521c-1.47 1.46-3.4 2.19-5.331 2.19-1.932 0-3.862-0.73-5.332-2.19-1.427-1.417-2.213-3.304-2.213-5.311s0.786-3.893 2.214-5.311c2.938-2.921 7.722-2.919 10.662 0 1.427 1.418 2.213 3.304 2.213 5.311S84.612 53.104 83.186 54.521z" fill="#ffffff" data-fill-palette-color="accent"></path></g></g></svg></g></svg></g><g></g></svg></g></svg></g></svg></g></svg></g><defs></defs></svg><rect width="320" height="360" fill="none" stroke="none" visibility="hidden"></rect></g></svg></g></svg>